<svg xmlns="http://www.w3.org/2000/svg" viewBox="0 0 1200 630" width="1200" height="630">
  <defs>
    <linearGradient id="g" x1="0" y1="0" x2="1" y2="1">
      <stop offset="0" stop-color="#0b1220"/>
      <stop offset="1" stop-color="#16243f"/>
    </linearGradient>
    <radialGradient id="r" cx="40%" cy="50%" r="60%">
      <stop offset="0" stop-color="#1dd1a1" stop-opacity="0.35"/>
      <stop offset="1" stop-color="#1dd1a1" stop-opacity="0"/>
    </radialGradient>
  </defs>
  <rect width="1200" height="630" fill="url(#g)"/>
  <rect width="1200" height="630" fill="url(#r)"/>
  <g transform="translate(600 360)" stroke="#ffffff" stroke-width="4" fill="none" opacity="0.95">
    <path d="M -260 40 L -200 20 L -140 -20 L -80 10 L -20 -40 L 40 -30 L 100 -80 L 160 -60 L 220 -110 L 260 -140"/>
    <g fill="#1dd1a1" stroke="#1dd1a1">
      <circle cx="-260" cy="40" r="6"/>
      <circle cx="-200" cy="20" r="6"/>
      <circle cx="-140" cy="-20" r="6"/>
      <circle cx="-80" cy="10" r="6"/>
      <circle cx="-20" cy="-40" r="6"/>
      <circle cx="40" cy="-30" r="6"/>
      <circle cx="100" cy="-80" r="6"/>
      <circle cx="160" cy="-60" r="6"/>
      <circle cx="220" cy="-110" r="6"/>
      <circle cx="260" cy="-140" r="9"/>
    </g>
    <line x1="-280" y1="100" x2="280" y2="100" stroke="#a5b4cf" stroke-width="2" opacity="0.3"/>
    <line x1="-280" y1="100" x2="-280" y2="-180" stroke="#a5b4cf" stroke-width="2" opacity="0.3"/>
  </g>
  <text x="60" y="92" font-family="system-ui,-apple-system,Segoe UI,Roboto,sans-serif" font-weight="800" font-size="28" fill="#1dd1a1" letter-spacing="2">RICHBLOK · CHALLENGE</text>
  <text x="60" y="570" font-family="system-ui,-apple-system,Segoe UI,Roboto,sans-serif" font-weight="900" font-size="72" fill="#ffffff">Product Thinking</text>
  <text x="60" y="610" font-family="system-ui,-apple-system,Segoe UI,Roboto,sans-serif" font-weight="500" font-size="26" fill="#a5b4cf">20 questions · 20 minutes · Instant badge</text>
</svg>
