<svg xmlns="http://www.w3.org/2000/svg" viewBox="0 0 1200 630" width="1200" height="630">
  <defs>
    <linearGradient id="g" x1="0" y1="0" x2="1" y2="1">
      <stop offset="0" stop-color="#0b1220"/>
      <stop offset="1" stop-color="#16243f"/>
    </linearGradient>
    <radialGradient id="r" cx="60%" cy="60%" r="60%">
      <stop offset="0" stop-color="#f97316" stop-opacity="0.3"/>
      <stop offset="1" stop-color="#f97316" stop-opacity="0"/>
    </radialGradient>
  </defs>
  <rect width="1200" height="630" fill="url(#g)"/>
  <rect width="1200" height="630" fill="url(#r)"/>
  <g transform="translate(600 315)">
    <ellipse cx="0" cy="-100" rx="120" ry="30" fill="#f97316"/>
    <path d="M -120 -100 L -120 -30 Q -120 0 0 0 Q 120 0 120 -30 L 120 -100 Z" fill="#f97316" opacity="0.9"/>
    <ellipse cx="0" cy="-30" rx="120" ry="30" fill="#fb923c"/>
    <path d="M -120 -30 L -120 40 Q -120 70 0 70 Q 120 70 120 40 L 120 -30 Z" fill="#f97316" opacity="0.75"/>
    <ellipse cx="0" cy="40" rx="120" ry="30" fill="#fb923c"/>
    <path d="M -120 40 L -120 110 Q -120 140 0 140 Q 120 140 120 110 L 120 40 Z" fill="#f97316" opacity="0.6"/>
    <ellipse cx="0" cy="110" rx="120" ry="30" fill="#fb923c"/>
  </g>
  <text x="60" y="92" font-family="system-ui,-apple-system,Segoe UI,Roboto,sans-serif" font-weight="800" font-size="28" fill="#1dd1a1" letter-spacing="2">RICHBLOK · CHALLENGE</text>
  <text x="60" y="570" font-family="system-ui,-apple-system,Segoe UI,Roboto,sans-serif" font-weight="900" font-size="72" fill="#ffffff">SQL &amp; Data</text>
  <text x="60" y="610" font-family="system-ui,-apple-system,Segoe UI,Roboto,sans-serif" font-weight="500" font-size="26" fill="#a5b4cf">20 questions · 20 minutes · Instant badge</text>
</svg>
