<svg xmlns="http://www.w3.org/2000/svg" viewBox="0 0 1200 630" width="1200" height="630">
  <defs>
    <linearGradient id="g" x1="0" y1="0" x2="1" y2="1">
      <stop offset="0" stop-color="#0b1220"/>
      <stop offset="1" stop-color="#16243f"/>
    </linearGradient>
    <radialGradient id="r" cx="50%" cy="50%" r="60%">
      <stop offset="0" stop-color="#c084fc" stop-opacity="0.35"/>
      <stop offset="1" stop-color="#c084fc" stop-opacity="0"/>
    </radialGradient>
  </defs>
  <rect width="1200" height="630" fill="url(#g)"/>
  <rect width="1200" height="630" fill="url(#r)"/>
  <g transform="translate(600 315)">
    <rect x="-180" y="-120" width="360" height="240" rx="20" ry="20" fill="#1e2a4a" stroke="#c084fc" stroke-width="3"/>
    <rect x="-180" y="-120" width="360" height="40" rx="20" ry="20" fill="#c084fc" opacity="0.4"/>
    <circle cx="-160" cy="-100" r="6" fill="#f87171"/>
    <circle cx="-140" cy="-100" r="6" fill="#fbbf24"/>
    <circle cx="-120" cy="-100" r="6" fill="#4ade80"/>
    <rect x="-150" y="-60" width="100" height="16" rx="4" fill="#c084fc" opacity="0.7"/>
    <rect x="-150" y="-30" width="200" height="10" rx="4" fill="#ffffff" opacity="0.3"/>
    <rect x="-150" y="-10" width="160" height="10" rx="4" fill="#ffffff" opacity="0.3"/>
    <rect x="-150" y="10" width="180" height="10" rx="4" fill="#ffffff" opacity="0.3"/>
    <rect x="-150" y="60" width="120" height="40" rx="20" fill="#1dd1a1"/>
    <text x="-90" y="88" font-family="system-ui,-apple-system,Segoe UI" font-weight="700" font-size="18" fill="#0b1220" text-anchor="middle">Click me</text>
  </g>
  <text x="60" y="92" font-family="system-ui,-apple-system,Segoe UI,Roboto,sans-serif" font-weight="800" font-size="28" fill="#1dd1a1" letter-spacing="2">RICHBLOK · CHALLENGE</text>
  <text x="60" y="570" font-family="system-ui,-apple-system,Segoe UI,Roboto,sans-serif" font-weight="900" font-size="72" fill="#ffffff">UI/UX &amp; Product Design</text>
  <text x="60" y="610" font-family="system-ui,-apple-system,Segoe UI,Roboto,sans-serif" font-weight="500" font-size="26" fill="#a5b4cf">20 questions · 20 minutes · Instant badge</text>
</svg>
